# xmcd
#
# Track frame offsets: 
#        150
#        11635
#        26812
#        43827
#        60707
#        80480
#        97632
#        118465
#        132337
#        144317
#
# Disc length: 2165 seconds
#
# Revision: 0
# Processed by: cddbd v1.4PL0 Copyright (c) Steve Scherf et al.
# Submitted via: ExactAudioCopy v0.90b4
#
DISCID=8608730a
DTITLE=Terri Gibbs - Comfort The People
DYEAR=1900
DGENRE=Country
TTITLE0=Take Me Back
TTITLE1=All For You
TTITLE2=Holy Fire Burning
TTITLE3=The Shepherd Cried
TTITLE4=Promised Land
TTITLE5=Comfort The People
TTITLE6=Sold Out
TTITLE7=Unconditional Love
TTITLE8=Seek First The Kingdom
TTITLE9=My Last Song
EXTD=
EXTT0=
EXTT1=
EXTT2=
EXTT3=
EXTT4=
EXTT5=
EXTT6=
EXTT7=
EXTT8=
EXTT9=
PLAYORDER=
